<svg xmlns="http://www.w3.org/2000/svg" width="250" height="250" viewBox="0 0 250 250">
  <path d="m183.7 72c-22.83 0-38.97 13.08-59.38 34.02-18.23-20.07-35.09-34.02-58.06-34.02-27.67 0-52.78 23.68-52.78 53.39 0 28.37 23.71 52.61 51.76 52.61 21.22 0 36.92-11.72 58.95-33.94 17.88 19.65 34.6 33.94 58.3 33.94 28.3 0 52.99-24.38 52.99-52.09 0-27.58-22.31-53.91-51.78-53.91zm-117.9 78.46c-13.75 0-24.34-11.99-24.34-25.21 0-13.36 10.86-25.02 23.79-25.02 13.73 0 23.56 9.55 40.42 25.16-15.16 15.88-24.72 25.07-39.87 25.07zm117 0c-13.73 0-23.29-10.08-39.7-25.34 15.56-17.05 25.76-25.16 39.83-25.16 14.14 0 24.62 12.2 24.62 25.43 0 13.08-10.34 25.07-24.75 25.07z" fill="#fff"/>
</svg>
