<svg xmlns="http://www.w3.org/2000/svg" width="250" height="250" viewBox="0 0 250 250">
<!-- SVG created with Arrow, by QuiverAI (https://quiver.ai) -->
  <path d="m191.8 6.67h-134.6c-27.8 0-50.09 22.74-50.09 51.27v133.9c0 28.12 21.8 50.5 49.61 50.5h134.6c28.21 0 50.98-22.38 50.98-50.5v-134.6c0-28.12-22.29-50.5-50.5-50.5z" fill="#101A2D"/>
  <path d="m175.1 87.7c-14.9 0-24.92 5.38-44.96 25.99l-12.16 13.47c-15.92 17.95-26.71 26.02-42.31 26.02-14.9 0-26.99-12.46-26.99-27.45 0-15.35 12.09-27.9 27.19-27.9 11.89 0 19.54 5.89 28.31 17.03 2.69 3.5 9 0.2 7.94-4.66-8.36-12.46-18.38-22.69-35.2-22.69-21.22 0-39.17 17.57-39.17 37.92 0 20.75 15.92 38.32 37.25 38.32h1.06c16.27 0 27.16-8.57 48-30.84l4.84-5.28c17.37-19.41 29.06-29.99 45.33-29.99 15.1 0 27.39 12.65 27.39 27.9 0 14.7-11.9 27.64-27.6 27.64-11.32 0-19.27-5.47-27.42-16.81-3.48-3.56-10.19-0.1-8.74 5.28 9.54 13.34 19.37 22.2 36.16 22.2h1.06c21.03 0 36.53-18.93 36.53-38.14-0.77-19.7-16.69-38.01-36.51-38.01z" fill="#fff"/>
</svg>